# xmcd
#
# Track frame offsets:
# 150
# 16875
# 38587
# 60807
# 79452
# 97857
# 116930
# 146212
# 166735
# 184210
# 197245
# 218167
# 234870
# 254697
#
# Disc length: 3686 seconds
#
#
# Revision: 2
# Processed by: cddbd v1.4PL0 Copyright (c) Steve Scherf et al.
# Submitted via: FreeRIP 2.00 
#
DISCID=bc0e640e
DTITLE=雪地裡的星星
DYEAR=1900
DGENRE=
TTITLE0=無可取代
TTITLE1=你知道我愛你
TTITLE2=摘星
TTITLE3=愛的速度讓我想哭
TTITLE4=是你
TTITLE5=做你英雄
TTITLE6=溫暖的意味
TTITLE7=誕生
TTITLE8=風帶來的回憶
TTITLE9=大自然
TTITLE10=歲月交替
TTITLE11=閉上眼睛
TTITLE12=與風游戲的夏天
TTITLE13=大海
EXTD=
EXTT0=
EXTT1=
EXTT2=
EXTT3=
EXTT4=
EXTT5=
EXTT6=
EXTT7=
EXTT8=
EXTT9=
EXTT10=
EXTT11=
EXTT12=
EXTT13=
PLAYORDER=
